<svg width="60" height="60" viewBox="0 0 60 60" fill="none" xmlns="http://www.w3.org/2000/svg">
<path d="M52.6999 21.4501V38.55C52.6999 41.35 51.1999 43.9501 48.7749 45.3751L33.9249 53.9501C31.4999 55.3501 28.4999 55.3501 26.0499 53.9501L11.1999 45.3751C8.7749 43.9751 7.2749 41.375 7.2749 38.55V21.4501C7.2749 18.6501 8.7749 16.05 11.1999 14.625L26.0499 6.05C28.4749 4.65 31.4749 4.65 33.9249 6.05L48.7749 14.625C51.1999 16.05 52.6999 18.6251 52.6999 21.4501Z" stroke="#040627" stroke-width="3" stroke-linecap="round" stroke-linejoin="round"/>
<path d="M30 27.5C33.2171 27.5 35.825 24.892 35.825 21.675C35.825 18.4579 33.2171 15.8501 30 15.8501C26.783 15.8501 24.175 18.4579 24.175 21.675C24.175 24.892 26.783 27.5 30 27.5Z" stroke="#040627" stroke-width="3" stroke-linecap="round" stroke-linejoin="round"/>
<path d="M40 41.65C40 37.15 35.525 33.5001 30 33.5001C24.475 33.5001 20 37.15 20 41.65" stroke="#040627" stroke-width="3" stroke-linecap="round" stroke-linejoin="round"/>
</svg>
